<?xml version="1.0" encoding="UTF-8"?>
<svg id="Capa_2" data-name="Capa 2" xmlns="http://www.w3.org/2000/svg" viewBox="0 0 439.37 101.56">
  <defs>
    <style>
      .cls-1 {
        fill: #3c3c3b;
      }

      .cls-2 {
        fill: #1d1d1b;
      }
    </style>
  </defs>
  <g id="Capa_1-2" data-name="Capa 1">
    <path class="cls-2" d="M430.31,9.48c5.56,0,8.42,3.33,8.42,9.15v1.14h-5.41v-1.51c0-2.6-1.04-3.59-2.86-3.59s-2.86.99-2.86,3.59c0,7.49,11.18,8.89,11.18,19.29,0,5.82-2.91,9.15-8.53,9.15s-8.53-3.33-8.53-9.15v-2.24h5.41v2.6c0,2.6,1.14,3.54,2.96,3.54s2.96-.94,2.96-3.54c0-7.49-11.18-8.89-11.18-19.29,0-5.82,2.86-9.15,8.42-9.15Z"/>
    <g>
      <path d="M50.78,0C22.74,0,0,22.74,0,50.78s22.74,50.78,50.78,50.78,50.78-22.74,50.78-50.78S78.83,0,50.78,0ZM52.4,26.76l5.26,5.36-14.1,7.11-5.38-5.38,14.22-7.1ZM73.69,76.62l-14.27-14.26v21.3l-14.18,7.13-28.45-28.45v-28.45l28.43,28.43,14.18-7.1-10.72-10.63,14.35-7.08,10.66,10.66,14.18-7.14v28.45l-14.18,7.14Z"/>
      <path class="cls-2" d="M141.98,46.3h-5.77l-.99-6.6h-7.02l-.99,6.6h-5.25l5.82-36.4h8.37l5.82,36.4ZM128.92,34.75h5.51l-2.76-18.41-2.76,18.41Z"/>
      <path class="cls-2" d="M156.59,46.3c-.31-.94-.52-1.51-.52-4.47v-5.72c0-3.38-1.14-4.63-3.74-4.63h-1.98v14.82h-5.72V9.9h8.63c5.93,0,8.48,2.76,8.48,8.37v2.86c0,3.74-1.2,6.19-3.74,7.38,2.86,1.2,3.8,3.95,3.8,7.75v5.62c0,1.77.05,3.07.62,4.42h-5.82ZM150.35,15.1v11.18h2.24c2.13,0,3.43-.94,3.43-3.85v-3.59c0-2.6-.88-3.74-2.91-3.74h-2.76Z"/>
      <path class="cls-2" d="M170.63,19.93v26.37h-5.15V9.9h7.18l5.88,21.79V9.9h5.1v36.4h-5.88l-7.12-26.37Z"/>
      <path class="cls-2" d="M206.25,46.3h-5.77l-.99-6.6h-7.02l-.99,6.6h-5.25l5.82-36.4h8.37l5.82,36.4ZM193.19,34.75h5.51l-2.76-18.41-2.76,18.41Z"/>
      <path class="cls-2" d="M214.36,9.9v28.08c0,2.6,1.14,3.54,2.96,3.54s2.96-.94,2.96-3.54V9.9h5.41v27.72c0,5.82-2.91,9.15-8.53,9.15s-8.53-3.33-8.53-9.15V9.9h5.72Z"/>
      <path class="cls-2" d="M245.35,9.48c5.56,0,8.42,3.33,8.42,9.15v1.14h-5.41v-1.51c0-2.6-1.04-3.59-2.86-3.59s-2.86.99-2.86,3.59c0,7.49,11.18,8.89,11.18,19.29,0,5.82-2.91,9.15-8.53,9.15s-8.53-3.33-8.53-9.15v-2.24h5.41v2.6c0,2.6,1.14,3.54,2.96,3.54s2.96-.94,2.96-3.54c0-7.49-11.18-8.89-11.18-19.29,0-5.82,2.86-9.15,8.42-9.15Z"/>
      <path class="cls-2" d="M256.63,18.63c0-5.82,3.07-9.15,8.68-9.15s8.68,3.33,8.68,9.15v18.93c0,5.82-3.07,9.15-8.68,9.15s-8.68-3.33-8.68-9.15v-18.93ZM262.35,37.93c0,2.6,1.14,3.59,2.96,3.59s2.96-.99,2.96-3.59v-19.66c0-2.6-1.14-3.59-2.96-3.59s-2.96.99-2.96,3.59v19.66Z"/>
      <path class="cls-2" d="M277.69,9.9h5.72v31.2h9.41v5.2h-15.13V9.9Z"/>
      <path class="cls-2" d="M301.04,25.24h7.85v5.2h-7.85v10.66h9.88v5.2h-15.6V9.9h15.6v5.2h-9.88v10.14ZM309.2,2.2l-5.3,5.77h-3.85l3.54-5.77h5.62Z"/>
      <path class="cls-2" d="M320.85,9.9h17.68v5.2h-5.98v31.2h-5.72V15.1h-5.98v-5.2Z"/>
      <path class="cls-2" d="M357.56,46.3h-5.77l-.99-6.6h-7.02l-.99,6.6h-5.25l5.82-36.4h8.37l5.82,36.4ZM344.51,34.75h5.51l-2.76-18.41-2.76,18.41Z"/>
      <path class="cls-2" d="M372.18,46.3c-.31-.94-.52-1.51-.52-4.47v-5.72c0-3.38-1.14-4.63-3.74-4.63h-1.98v14.82h-5.72V9.9h8.63c5.93,0,8.48,2.76,8.48,8.37v2.86c0,3.74-1.2,6.19-3.74,7.38,2.86,1.2,3.8,3.95,3.8,7.75v5.62c0,1.77.05,3.07.62,4.42h-5.82ZM365.94,15.1v11.18h2.24c2.13,0,3.43-.94,3.43-3.85v-3.59c0-2.6-.88-3.74-2.91-3.74h-2.76Z"/>
      <path class="cls-2" d="M393.08,46.3c-.31-.94-.52-1.51-.52-4.47v-5.72c0-3.38-1.14-4.63-3.74-4.63h-1.98v14.82h-5.72V9.9h8.63c5.93,0,8.48,2.76,8.48,8.37v2.86c0,3.74-1.2,6.19-3.74,7.38,2.86,1.2,3.8,3.95,3.8,7.75v5.62c0,1.77.05,3.07.62,4.42h-5.82ZM386.84,15.1v11.18h2.24c2.13,0,3.43-.94,3.43-3.85v-3.59c0-2.6-.88-3.74-2.91-3.74h-2.76Z"/>
      <path class="cls-2" d="M401.55,18.63c0-5.82,3.07-9.15,8.68-9.15s8.68,3.33,8.68,9.15v18.93c0,5.82-3.07,9.15-8.68,9.15s-8.68-3.33-8.68-9.15v-18.93ZM409.82,2.2l3.54,5.77h-4.11l-5.3-5.77h5.88ZM407.27,37.93c0,2.6,1.14,3.59,2.96,3.59s2.96-.99,2.96-3.59v-19.66c0-2.6-1.14-3.59-2.96-3.59s-2.96.99-2.96,3.59v19.66Z"/>
      <g>
        <path class="cls-1" d="M129.86,59.55c6.2,0,8.89,4.07,8.89,9.98v20.2c0,5.91-2.7,9.98-8.89,9.98h-8.84v-40.17h8.84ZM129.8,97.3c4.48,0,6.31-3.04,6.31-7.46v-20.43c0-4.42-1.89-7.46-6.31-7.46h-6.14v35.35h6.14Z"/>
        <path class="cls-1" d="M145.75,59.55v40.17h-2.64v-40.17h2.64Z"/>
        <path class="cls-1" d="M167.27,69.24v.86h-2.52v-1.03c0-4.25-1.61-7.46-5.97-7.46s-5.97,3.16-5.97,7.4c0,9.76,14.52,9.93,14.52,21,0,5.8-2.52,10.04-8.66,10.04s-8.66-4.25-8.66-10.04v-2.07h2.52v2.24c0,4.3,1.66,7.4,6.08,7.4s6.08-3.1,6.08-7.4c0-9.64-14.52-9.81-14.52-21,0-6.02,2.64-9.93,8.55-9.98,6.08,0,8.55,4.25,8.55,10.04Z"/>
        <path class="cls-1" d="M185.17,78.14v2.41h-10.96v16.76h13.2v2.41h-15.84v-40.17h15.84v2.41h-13.2v16.18h10.96Z"/>
        <path class="cls-1" d="M194.13,99.71h-2.41v-40.17h3.44l12.05,33.91v-33.91h2.41v40.17h-2.93l-12.57-35.81v35.81ZM206.92,53.69c-.69,1.66-1.84,2.64-3.33,2.7-2.12.06-3.5-1.95-5.34-1.89-1.03,0-1.78.63-2.41,1.72l-1.38-.92c.75-1.78,2.01-2.7,3.56-2.75,2.18-.06,3.62,2.01,5.34,1.89.98,0,1.66-.75,2.18-1.72l1.38.98Z"/>
        <path class="cls-1" d="M213.98,69.36c0-5.85,2.7-10.16,8.78-10.16s8.89,4.3,8.89,10.16v20.54c0,5.85-2.7,10.16-8.89,10.16s-8.78-4.3-8.78-10.16v-20.54ZM216.62,90.07c0,4.36,1.72,7.57,6.14,7.57s6.25-3.21,6.25-7.57v-20.89c0-4.36-1.78-7.57-6.25-7.57s-6.14,3.21-6.14,7.57v20.89Z"/>
        <path class="cls-1" d="M258.39,99.66h-2.64l-8.49-35.52v35.58h-2.35v-40.17h3.79l8.44,35.52,8.38-35.52h3.79v40.17h-2.52v-35.69l-8.38,35.63Z"/>
        <path class="cls-1" d="M276.41,90.02c0,4.3,1.61,7.63,6.02,7.63s6.03-3.33,6.03-7.63v-30.47h2.47v30.35c0,5.74-2.41,10.16-8.55,10.16s-8.61-4.42-8.61-10.16v-30.35h2.64v30.47Z"/>
        <path class="cls-1" d="M295.46,99.71v-40.17h2.64v37.76h12.63v2.41h-15.26Z"/>
        <path class="cls-1" d="M318.58,99.71v-37.76h-8.15v-2.41h18.99v2.41h-8.21v37.76h-2.64Z"/>
        <path class="cls-1" d="M335.34,59.55v40.17h-2.64v-40.17h2.64Z"/>
        <path class="cls-1" d="M353.41,99.66h-2.64l-8.49-35.52v35.58h-2.35v-40.17h3.79l8.44,35.52,8.38-35.52h3.79v40.17h-2.52v-35.69l-8.38,35.63Z"/>
        <path class="cls-1" d="M382.5,78.14v2.41h-10.96v16.76h13.2v2.41h-15.84v-40.17h15.84v2.41h-13.2v16.18h10.96Z"/>
        <path class="cls-1" d="M397.88,59.55c6.2,0,8.89,4.07,8.89,9.98v20.2c0,5.91-2.7,9.98-8.89,9.98h-8.84v-40.17h8.84ZM397.82,97.3c4.48,0,6.31-3.04,6.31-7.46v-20.43c0-4.42-1.89-7.46-6.31-7.46h-6.14v35.35h6.14Z"/>
        <path class="cls-1" d="M413.77,59.55v40.17h-2.64v-40.17h2.64Z"/>
        <path class="cls-1" d="M422.21,90.82l-2.01,8.89h-2.41l8.78-40.22h3.84l8.95,40.22h-2.64l-2.01-8.89h-12.51ZM422.61,88.52h11.7l-5.91-25.99-5.8,25.99Z"/>
      </g>
    </g>
  </g>
</svg>